<svg width="50" height="50" viewBox="0 0 50 50" fill="none" xmlns="http://www.w3.org/2000/svg">
<path d="M43.5415 4.16667H6.45817C5.85038 4.16667 5.26749 4.40811 4.83772 4.83789C4.40795 5.26766 4.1665 5.85055 4.1665 6.45834V43.5417C4.1665 43.8426 4.22578 44.1406 4.34095 44.4187C4.45611 44.6967 4.62492 44.9493 4.83772 45.1621C5.05052 45.3749 5.30315 45.5437 5.58119 45.6589C5.85923 45.7741 6.15722 45.8333 6.45817 45.8333H26.4165V29.6875H20.9998V23.4375H26.4165V18.75C26.3043 17.6495 26.4342 16.5378 26.7972 15.4928C27.1601 14.4478 27.7473 13.4949 28.5175 12.7009C29.2877 11.9068 30.2223 11.2909 31.2557 10.8963C32.2892 10.5017 33.3964 10.338 34.4998 10.4167C36.1214 10.4067 37.7421 10.4902 39.354 10.6667V16.2917H36.0415C33.4165 16.2917 32.9165 17.5417 32.9165 19.3542V23.375H39.1665L38.354 29.625H32.9165V45.8333H43.5415C43.8425 45.8333 44.1404 45.7741 44.4185 45.6589C44.6965 45.5437 44.9492 45.3749 45.162 45.1621C45.3748 44.9493 45.5436 44.6967 45.6587 44.4187C45.7739 44.1406 45.8332 43.8426 45.8332 43.5417V6.45834C45.8332 6.15739 45.7739 5.85939 45.6587 5.58136C45.5436 5.30332 45.3748 5.05069 45.162 4.83789C44.9492 4.62508 44.6965 4.45628 44.4185 4.34111C44.1404 4.22595 43.8425 4.16667 43.5415 4.16667Z" fill="black"/>
</svg>
