<svg width="50" height="50" viewBox="0 0 50 50" fill="none" xmlns="http://www.w3.org/2000/svg">
<path d="M24.8333 19.6667C23.8115 19.6667 22.8125 19.9697 21.9629 20.5374C21.1132 21.1051 20.451 21.9121 20.06 22.8561C19.6689 23.8002 19.5666 24.8391 19.7659 25.8413C19.9653 26.8435 20.4574 27.7641 21.1799 28.4867C21.9025 29.2093 22.8231 29.7014 23.8254 29.9007C24.8276 30.1001 25.8664 29.9978 26.8105 29.6067C27.7546 29.2157 28.5615 28.5534 29.1293 27.7038C29.697 26.8541 30 25.8552 30 24.8333C30 24.1548 29.8664 23.483 29.6067 22.8561C29.3471 22.2293 28.9665 21.6597 28.4867 21.1799C28.007 20.7002 27.4374 20.3196 26.8105 20.06C26.1837 19.8003 25.5118 19.6667 24.8333 19.6667ZM45.5208 14.5625C45.5099 12.9537 45.2136 11.3595 44.6458 9.85417C44.2277 8.75262 43.5807 7.75228 42.7475 6.91914C41.9144 6.08599 40.914 5.439 39.8125 5.02083C38.3071 4.45305 36.713 4.15679 35.1042 4.14583C32.4167 4 31.625 4 24.8333 4C18.0417 4 17.25 4 14.5625 4.14583C12.9537 4.15679 11.3595 4.45305 9.85417 5.02083C8.75262 5.439 7.75228 6.08599 6.91914 6.91914C6.08599 7.75228 5.439 8.75262 5.02083 9.85417C4.45305 11.3595 4.15679 12.9537 4.14583 14.5625C4 17.25 4 18.0417 4 24.8333C4 31.625 4 32.4167 4.14583 35.1042C4.16826 36.7187 4.46411 38.3177 5.02083 39.8333C5.43714 40.9298 6.0836 41.9244 6.91667 42.75C7.74624 43.5881 8.74873 44.2351 9.85417 44.6458C11.3595 45.2136 12.9537 45.5099 14.5625 45.5208C17.25 45.6667 18.0417 45.6667 24.8333 45.6667C31.625 45.6667 32.4167 45.6667 35.1042 45.5208C36.713 45.5099 38.3071 45.2136 39.8125 44.6458C40.9179 44.2351 41.9204 43.5881 42.75 42.75C43.5831 41.9244 44.2295 40.9298 44.6458 39.8333C45.2131 38.3206 45.5093 36.7197 45.5208 35.1042C45.6667 32.4167 45.6667 31.625 45.6667 24.8333C45.6667 18.0417 45.6667 17.25 45.5208 14.5625ZM40.2292 31.2292C40.1623 32.5148 39.8879 33.7812 39.4167 34.9792C39.0122 35.9785 38.411 36.8863 37.6487 37.6487C36.8863 38.411 35.9785 39.0122 34.9792 39.4167C33.7698 39.8617 32.4964 40.1079 31.2083 40.1458C29.5625 40.1458 29.125 40.1458 24.8333 40.1458C20.5417 40.1458 20.1042 40.1458 18.4583 40.1458C17.1703 40.1079 15.8969 39.8617 14.6875 39.4167C13.6544 39.0327 12.7214 38.4203 11.9583 37.625C11.2035 36.8776 10.6205 35.9747 10.25 34.9792C9.80324 33.7711 9.56376 32.4962 9.54167 31.2083C9.54167 29.5625 9.54167 29.125 9.54167 24.8333C9.54167 20.5417 9.54167 20.1042 9.54167 18.4583C9.56376 17.1705 9.80324 15.8956 10.25 14.6875C10.6339 13.6544 11.2464 12.7214 12.0417 11.9583C12.7924 11.2075 13.6943 10.6252 14.6875 10.25C15.8969 9.80501 17.1703 9.55877 18.4583 9.52083C20.1042 9.52083 20.5417 9.52083 24.8333 9.52083C29.125 9.52083 29.5625 9.52083 31.2083 9.52083C32.4964 9.55877 33.7698 9.80501 34.9792 10.25C36.0123 10.6339 36.9453 11.2464 37.7083 12.0417C38.4632 12.7891 39.0462 13.6919 39.4167 14.6875C39.8617 15.8969 40.1079 17.1703 40.1458 18.4583C40.1458 20.1042 40.1458 20.5417 40.1458 24.8333C40.1458 29.125 40.2917 29.5625 40.2292 31.2083V31.2292ZM36.8958 15.7292C36.6478 15.0562 36.2567 14.4451 35.7496 13.9379C35.2424 13.4308 34.6313 13.0397 33.9583 12.7917C33.0343 12.4714 32.0611 12.3162 31.0833 12.3333C29.4583 12.3333 29 12.3333 24.8333 12.3333C20.6667 12.3333 20.2083 12.3333 18.5833 12.3333C17.6006 12.3429 16.6272 12.5263 15.7083 12.875C15.0457 13.1118 14.441 13.4869 13.9346 13.9754C13.4281 14.4639 13.0314 15.0547 12.7708 15.7083C12.4683 16.6362 12.3205 17.6075 12.3333 18.5833C12.3333 20.2083 12.3333 20.6667 12.3333 24.8333C12.3333 29 12.3333 29.4583 12.3333 31.0833C12.354 32.065 12.537 33.0365 12.875 33.9583C13.123 34.6313 13.5141 35.2424 14.0213 35.7496C14.5284 36.2567 15.1396 36.6478 15.8125 36.8958C16.7014 37.2227 17.6368 37.4056 18.5833 37.4375C20.2083 37.4375 20.6667 37.4375 24.8333 37.4375C29 37.4375 29.4583 37.4375 31.0833 37.4375C32.0661 37.4279 33.0394 37.2445 33.9583 36.8958C34.6313 36.6478 35.2424 36.2567 35.7496 35.7496C36.2567 35.2424 36.6478 34.6313 36.8958 33.9583C37.2445 33.0394 37.4279 32.0661 37.4375 31.0833C37.4375 29.4583 37.4375 29 37.4375 24.8333C37.4375 20.6667 37.4375 20.2083 37.4375 18.5833C37.4381 17.5996 37.2544 16.6244 36.8958 15.7083V15.7292ZM24.8333 32.7917C23.7892 32.7917 22.7553 32.5857 21.791 32.1855C20.8266 31.7853 19.9506 31.1987 19.2133 30.4595C18.476 29.7202 17.8917 28.8427 17.4941 27.8773C17.0964 26.9119 16.8931 25.8775 16.8958 24.8333C16.8958 23.2584 17.3631 21.719 18.2385 20.4098C19.1139 19.1006 20.3581 18.0806 21.8135 17.4788C23.2689 16.8771 24.8701 16.7207 26.4144 17.0295C27.9588 17.3382 29.3768 18.0983 30.4889 19.2133C31.6011 20.3284 32.3574 21.7484 32.6621 23.2936C32.9668 24.8387 32.8063 26.4395 32.2007 27.8933C31.5952 29.3471 30.5719 30.5886 29.2604 31.4606C27.9489 32.3326 26.4082 32.7958 24.8333 32.7917ZM33.1667 18.4375C32.7061 18.3888 32.2799 18.1713 31.9702 17.827C31.6604 17.4828 31.489 17.036 31.489 16.5729C31.489 16.1098 31.6604 15.6631 31.9702 15.3188C32.2799 14.9745 32.7061 14.7571 33.1667 14.7083C33.6272 14.7571 34.0534 14.9745 34.3632 15.3188C34.6729 15.6631 34.8443 16.1098 34.8443 16.5729C34.8443 17.036 34.6729 17.4828 34.3632 17.827C34.0534 18.1713 33.6272 18.3888 33.1667 18.4375Z" fill="black"/>
</svg>
