<svg width="20" height="20" viewBox="0 0 20 20" fill="none" xmlns="http://www.w3.org/2000/svg">
<path d="M4.92322 17.705H15.085C16.8346 17.705 17.705 16.8346 17.705 15.1103V4.88926C17.705 3.16497 16.8346 2.29462 15.085 2.29462H4.92322C3.18215 2.29462 2.29465 3.15676 2.29465 4.88926V15.1107C2.29465 16.8432 3.18215 17.705 4.92322 17.705ZM10.0043 11.2435C9.56072 11.2435 9.31786 10.9839 9.30072 10.54L9.18393 6.40533C9.16715 5.94462 9.51858 5.61819 9.99572 5.61819C10.4646 5.61819 10.8329 5.95319 10.8161 6.41355L10.6904 10.5403C10.6739 10.9921 10.4311 11.2435 10.0043 11.2435ZM10.0043 14.3232C9.51857 14.3232 9.06679 13.9382 9.06679 13.4196C9.06679 12.9003 9.51036 12.5153 10.0043 12.5153C10.4896 12.5153 10.9418 12.8921 10.9418 13.4193C10.9418 13.9468 10.4811 14.3232 10.0043 14.3232Z" fill="#D13E3E"/>
</svg>
