<svg width="50" height="50" viewBox="0 0 50 50" fill="none" xmlns="http://www.w3.org/2000/svg">
<path d="M21.1215 22.1455C20.5398 22.1455 19.9816 22.3766 19.5702 22.788C19.1589 23.1994 18.9278 23.7573 18.9279 24.339C18.9279 24.9208 19.159 25.4787 19.5703 25.89C19.9817 26.3014 20.5396 26.5325 21.1214 26.5325C21.7031 26.5325 22.261 26.3014 22.6724 25.89C23.0837 25.4787 23.3148 24.9208 23.3149 24.339C23.3149 23.7573 23.0838 23.1994 22.6725 22.788C22.2611 22.3766 21.7032 22.1455 21.1215 22.1455ZM28.9429 22.1455C28.4639 22.1049 27.9838 22.2098 27.5654 22.4467C27.1471 22.6835 26.8099 23.0411 26.5982 23.4727C26.3865 23.9043 26.31 24.3897 26.3787 24.8655C26.4475 25.3413 26.6583 25.7852 26.9836 26.1392C27.3089 26.4932 27.7334 26.7407 28.2017 26.8494C28.67 26.9581 29.1602 26.9228 29.6081 26.7482C30.056 26.5737 30.4408 26.268 30.7121 25.8711C30.9834 25.4742 31.1285 25.0046 31.1285 24.5239C31.1413 24.2242 31.0949 23.9249 30.9919 23.6431C30.889 23.3614 30.7315 23.1026 30.5286 22.8818C30.3256 22.6609 30.0811 22.4821 29.809 22.3558C29.5369 22.2295 29.2426 22.158 28.9429 22.1455ZM39.357 4.16692H10.643C10.0647 4.16828 9.49233 4.28355 8.95857 4.50614C8.42482 4.72872 7.94013 5.05427 7.5322 5.46419C7.12426 5.8741 6.80107 6.36036 6.58107 6.89519C6.36107 7.43002 6.24858 8.00294 6.25001 8.58125V37.5526C6.2486 38.1309 6.36111 38.7038 6.58112 39.2387C6.80113 39.7735 7.12433 40.2597 7.53226 40.6696C7.94019 41.0795 8.42487 41.4051 8.95861 41.6276C9.49236 41.8502 10.0647 41.9655 10.643 41.9669H34.9429L33.8071 38.0025L36.5499 40.5525L39.1429 42.9525L43.75 47.024V8.58125C43.7514 8.00294 43.639 7.43002 43.419 6.89519C43.199 6.36036 42.8758 5.8741 42.4678 5.46419C42.0599 5.05427 41.5752 4.72872 41.0415 4.50614C40.5077 4.28355 39.9353 4.16828 39.357 4.16692ZM31.0857 32.1526C31.0857 32.1526 30.3141 31.2312 29.6712 30.4169C31.2245 30.0512 32.5985 29.1479 33.55 27.8669C32.779 28.3801 31.9523 28.8042 31.0857 29.1311C30.0888 29.5566 29.0462 29.8658 27.9785 30.0526C26.1433 30.3904 24.2612 30.3832 22.4287 30.0312C21.3527 29.8206 20.2983 29.5122 19.2785 29.1098C18.741 28.9031 18.2183 28.6596 17.7142 28.3812C17.6498 28.3382 17.5858 28.3169 17.5214 28.274C17.4892 28.258 17.4601 28.2363 17.4357 28.2098C17.0502 27.9956 16.8355 27.8455 16.8355 27.8455C17.7527 29.0996 19.0791 29.994 20.5856 30.374C19.943 31.1885 19.1501 32.1526 19.1501 32.1526C17.8772 32.1869 16.6154 31.9077 15.4757 31.3398C14.336 30.7718 13.3535 29.9324 12.6145 28.8954C12.684 24.5513 13.7391 20.2796 15.7 16.4026C17.4258 15.0472 19.5297 14.261 21.7214 14.1526L21.9355 14.4098C19.8736 14.92 17.9494 15.8784 16.3 17.2169C16.3 17.2169 16.7715 16.9598 17.5642 16.5955C19.1046 15.8923 20.7463 15.4367 22.4288 15.2456C22.5488 15.2206 22.6707 15.2062 22.7932 15.2026C24.2291 15.0155 25.6823 15.0012 27.1216 15.1599C29.3852 15.4183 31.5764 16.1171 33.5716 17.2169C32.0058 15.9423 30.1873 15.0147 28.2362 14.4955L28.5361 14.1528C30.7278 14.2611 32.8317 15.0473 34.5574 16.4028C36.5185 20.2797 37.5737 24.5514 37.6433 28.8955C36.8982 29.9315 35.9114 30.7698 34.7685 31.3374C33.6256 31.9051 32.3614 32.1849 31.0857 32.1526Z" fill="black"/>
</svg>
